<svg width="22px" height="16px" viewBox="0 0 22 16" version="1.1" xmlns="http://www.w3.org/2000/svg" xmlns:xlink="http://www.w3.org/1999/xlink">
    <g stroke="none" stroke-width="1" fill="none" fill-rule="evenodd">
        <g transform="translate(-702.000000, -2245.000000)" fill="#3B5591">
            <g transform="translate(477.000000, 2242.000000)">
                <path d="M227.111548,7.93191764 C226.604192,7.6137699 226.125315,7.17622958 225.675219,6.61943616 C225.225123,6.06264275 225,5.54546089 225,5.06816953 C225,4.47734365 225.169822,3.98484928 225.509466,3.59082588 C225.84911,3.19694196 226.334014,3 226.964178,3 L245.035671,3 C245.567438,3 246.027932,3.17797305 246.416699,3.53405862 C246.805466,3.89014418 247,4.31820005 247,4.8182262 C247,5.41672333 246.799589,5.98871977 246.398315,6.53393657 C245.997192,7.07943233 245.498123,7.54542602 244.900658,7.93163868 C241.82337,9.90900849 239.908014,11.1400352 239.155192,11.6248583 C239.07337,11.6779992 238.899329,11.7933469 238.63337,11.9714595 C238.367411,12.149572 238.146507,12.293652 237.970507,12.4034207 C237.794507,12.5131893 237.58174,12.6362083 237.332205,12.7726171 C237.082671,12.908747 236.847151,13.0112628 236.626247,13.0791882 C236.405192,13.1475321 236.200562,13.1814251 236.012356,13.1814251 L236,13.1814251 L235.987644,13.1814251 C235.799438,13.1814251 235.594808,13.1475321 235.373753,13.0791882 C235.152849,13.0112628 234.917479,12.9088864 234.667795,12.7726171 C234.41811,12.6363478 234.205342,12.5131893 234.029342,12.4034207 C233.853493,12.293652 233.632438,12.149572 233.366479,11.9714595 C233.100521,11.7934864 232.92663,11.6779992 232.844808,11.6248583 C232.099973,11.1401747 231.027849,10.4489252 229.628288,9.55124919 C228.228726,8.65357323 227.389863,8.11365657 227.111548,7.93191764 Z M245.772219,9.14774134 C246.23889,8.8523284 246.648,8.52260404 247,8.15912617 L247,17.1816343 C247,17.6818 246.807877,18.1095769 246.423027,18.4658019 C246.038329,18.822027 245.575877,19 245.035822,19 L226.964329,19 C226.424123,19 225.961671,18.822027 225.576973,18.4658019 C225.192274,18.1097163 225,17.6818 225,17.1816343 L225,8.15912617 C225.360137,8.53027529 225.773466,8.85999965 226.239986,9.14774134 C229.202753,11.0112977 231.236548,12.3182 232.341521,13.0681695 C232.808041,13.3863173 233.186562,13.6345869 233.477082,13.8124205 C233.767603,13.990533 234.154411,14.1722719 234.637205,14.3579162 C235.12,14.5435605 235.570247,14.6363129 235.987644,14.6363129 L236,14.6363129 L236.012507,14.6363129 C236.429904,14.6363129 236.88,14.5435605 237.362795,14.3579162 C237.84574,14.1722719 238.232397,13.990533 238.522918,13.8124205 C238.813589,13.6345869 239.19211,13.3863173 239.65863,13.0681695 C241.049753,12.1363216 243.087918,10.8294193 245.772219,9.14774134 Z"></path>
            </g>
        </g>
    </g>
</svg>