<svg width="22px" height="22px" viewBox="0 0 22 22" version="1.1" xmlns="http://www.w3.org/2000/svg" xmlns:xlink="http://www.w3.org/1999/xlink">
    <g stroke="none" stroke-width="1" fill="none" fill-rule="evenodd">
        <g transform="translate(-552.000000, -2242.000000)" fill="#3B5591">
            <g transform="translate(477.000000, 2242.000000)">
                <path d="M85.9999782,1.98202211 C88.9371191,1.98202211 89.2849947,1.99320024 90.4449003,2.04612169 C91.5173894,2.09506967 92.0998311,2.27426907 92.4874851,2.42486816 C93.0008931,2.62441524 93.3673699,2.86282379 93.752273,3.24772696 C94.1371762,3.63263014 94.3755848,3.99910686 94.5750882,4.51251486 C94.7257309,4.9001689 94.9049303,5.48261059 94.9538783,6.55505606 C95.0067998,7.71500533 95.0179779,8.06288095 95.0179779,11.0000218 C95.0179779,13.9371627 95.0067998,14.2850383 94.9538783,15.4449439 C94.9049303,16.5174331 94.7257309,17.0998748 94.5750882,17.4875288 C94.3755848,18.0009368 94.1371762,18.3674135 93.752273,18.7523167 C93.3673699,19.1372199 93.0008931,19.3756284 92.4874851,19.5751318 C92.0998311,19.7257746 91.5173894,19.904974 90.4449003,19.953922 C89.2851693,20.0068434 88.9372937,20.0180216 85.9999782,20.0180216 C83.0626626,20.0180216 82.714787,20.0068434 81.5550561,19.953922 C80.4825669,19.904974 79.9001252,19.7257746 79.5125149,19.5751318 C78.9990632,19.3756284 78.6325865,19.1372199 78.2476833,18.7523167 C77.8627801,18.3674135 77.6243716,18.0009368 77.4248682,17.4875288 C77.2742254,17.0998748 77.095026,16.5174331 77.046078,15.4449876 C76.9931566,14.2850383 76.9819784,13.9371627 76.9819784,11.0000218 C76.9819784,8.06288095 76.9931566,7.71500533 77.046078,6.55509972 C77.095026,5.48261059 77.2742254,4.9001689 77.4248682,4.51251486 C77.6243716,3.99910686 77.8627801,3.63263014 78.2476833,3.24772696 C78.6325865,2.86282379 78.9990632,2.62441524 79.5125149,2.42486816 C79.9001252,2.27426907 80.4825669,2.09506967 81.5550124,2.04612169 C82.7149617,1.99320024 83.0628373,1.98202211 85.9999782,1.98202211 M85.9999782,0 C88.9874206,0 89.362019,0.0126627249 90.5352423,0.0661954863 C91.7061077,0.119640918 92.5056933,0.305564652 93.205418,0.577507587 C93.9287652,0.858620081 94.5422088,1.23474668 95.153731,1.84626896 C95.7652533,2.45779125 96.1413799,3.07123477 96.4224924,3.79458202 C96.6944353,4.49430674 96.8803591,5.29389232 96.9338045,6.46475773 C96.9873373,7.63798103 97,8.01257937 97,11.0000218 C97,13.9874643 96.9873373,14.3620626 96.9338045,15.5352859 C96.8803591,16.7061513 96.6944353,17.5057369 96.4224924,18.2054616 C96.1413799,18.9288089 95.7652533,19.5422524 95.153731,20.1537747 C94.5422088,20.765297 93.9287652,21.1414236 93.205418,21.4225361 C92.5056933,21.694479 91.7061077,21.8804027 90.5352423,21.9338482 C89.362019,21.9873809 88.9874206,22 85.9999782,22 C83.0125357,22 82.637981,21.9873809 81.4647141,21.9338482 C80.2938487,21.8804027 79.4942631,21.694479 78.7945384,21.4225361 C78.0711911,21.1414236 77.4577476,20.765297 76.8462253,20.1537747 C76.234703,19.5422524 75.8585764,18.9287652 75.5774639,18.2054616 C75.305521,17.5057369 75.1195973,16.7061513 75.0661518,15.5352859 C75.0126191,14.3620626 75,13.9874643 75,11.0000218 C75,8.01257937 75.0126191,7.63798103 75.0661518,6.46475773 C75.1195973,5.29389232 75.305521,4.49430674 75.5774639,3.79458202 C75.8585764,3.07123477 76.234703,2.45779125 76.8462253,1.84626896 C77.4577476,1.23474668 78.0711911,0.858620081 78.7945384,0.577507587 C79.4942631,0.305564652 80.2938487,0.119640918 81.4647141,0.0661954863 C82.637981,0.0126627249 83.0125357,0 85.9999782,0 Z M86.0218254,5.36904762 C82.8998963,5.36904762 80.3690476,7.89989627 80.3690476,11.0218254 C80.3690476,14.1437545 82.8998963,16.6746032 86.0218254,16.6746032 C89.1437545,16.6746032 91.6746032,14.1437545 91.6746032,11.0218254 C91.6746032,7.89989627 89.1437545,5.36904762 86.0218254,5.36904762 Z M86.0218254,14.6911823 C83.99532,14.6911823 82.3524685,13.0483308 82.3524685,11.0218254 C82.3524685,8.99531997 83.99532,7.35246845 86.0218254,7.35246845 C88.0483308,7.35246845 89.6911823,8.99531997 89.6911823,11.0218254 C89.6911823,13.0483308 88.0483308,14.6911823 86.0218254,14.6911823 Z M93.1587302,5.1071212 C93.1587302,4.38388442 92.5724648,3.79761905 91.849228,3.79761905 C91.1259912,3.79761905 90.5396825,4.38388442 90.5396825,5.1071212 C90.5396825,5.83035798 91.1259912,6.41666667 91.849228,6.41666667 C92.5724648,6.41666667 93.1587302,5.83035798 93.1587302,5.1071212 Z"></path>
            </g>
        </g>
    </g>
</svg>