<svg width="20px" height="20px" viewBox="0 0 20 20" version="1.1" xmlns="http://www.w3.org/2000/svg" xmlns:xlink="http://www.w3.org/1999/xlink">
    <g stroke="none" stroke-width="1" fill="none" fill-rule="evenodd">
        <g transform="translate(-628.000000, -2243.000000)" fill="#3B5591">
            <g transform="translate(477.000000, 2242.000000)">
                <path d="M151.504468,7.41311307 L155.402634,7.41311307 L155.402634,20.9987194 L151.504468,20.9987194 L151.504468,7.41311307 Z M153.354186,5.71379178 L153.325964,5.71379178 C151.914864,5.71379178 151,4.67524651 151,3.36009732 C151,2.01805609 151.94191,1 153.381232,1 C154.819379,1 155.703669,2.01549494 155.731891,3.3562556 C155.731891,4.67140479 154.819379,5.71379178 153.354186,5.71379178 L153.354186,5.71379178 Z M171,21 L166.579727,21 L166.579727,13.9683698 C166.579727,12.1281854 165.888288,10.8732232 164.367827,10.8732232 C163.204845,10.8732232 162.55809,11.7196824 162.257056,12.537969 C162.144167,12.8299398 162.161806,13.2384428 162.161806,13.6482264 L162.161806,21 L157.78269,21 C157.78269,21 157.839135,8.54514022 157.78269,7.41311307 L162.161806,7.41311307 L162.161806,9.54526828 C162.420508,8.61301063 163.819849,7.28249456 166.052916,7.28249456 C168.823377,7.28249456 171,9.23793059 171,13.4446152 L171,21 L171,21 Z"></path>
            </g>
        </g>
    </g>
</svg>