<svg width="241px" height="72px" viewBox="0 0 241 72" version="1.1" xmlns="http://www.w3.org/2000/svg" xmlns:xlink="http://www.w3.org/1999/xlink">
    <g stroke="none" stroke-width="1" fill="none" fill-rule="evenodd">
        <g transform="translate(-480.000000, -90.000000)" fill-rule="nonzero" fill="#000000">
            <path d="M494.839041,153.380517 C495.950804,153.911364 497.472744,154.18559 499.402433,154.18559 C502.631238,154.18559 505.28292,153.355341 507.388728,151.702489 C509.438315,150.093765 510.454666,147.868502 510.454666,144.946912 C510.454666,142.855018 509.80593,141.134515 508.501197,139.739249 C507.102814,138.243835 505.322117,136.85997 503.156718,135.590221 C500.939205,134.289913 498.566471,133.00442 496.038489,131.733825 C493.443627,130.429616 491.006493,128.886518 488.727737,127.104892 C486.411817,125.29421 484.495729,123.141511 482.983045,120.650336 C481.436645,118.103635 480.669484,114.969737 480.669484,111.263513 C480.669484,108.078664 481.255775,105.295604 482.435887,102.923047 C483.612635,100.557256 485.235613,98.5962116 487.298788,97.0489756 C489.344093,95.5151412 491.755039,94.3765639 494.525832,93.6316663 C497.268983,92.8942 500.229073,92.526255 503.404817,92.526255 C507.234703,92.526255 510.80201,92.794806 514.106991,93.3326938 C517.431712,93.8737942 520.431207,94.7193171 523.104681,95.8710781 L523.655898,96.1085482 L523.62595,96.7106357 C523.56319,97.9723913 523.453617,99.420025 523.297293,101.054282 C523.140524,102.693206 522.936706,104.316508 522.685827,105.924215 C522.435806,107.526425 522.169999,109.035297 521.888333,110.450984 C521.605796,111.871051 521.338216,113.057721 521.084801,114.012992 L520.914194,114.65611 L515.816087,114.65611 L511.455491,101.601264 C510.793075,101.317533 509.861842,101.04431 508.670565,100.789522 C507.271888,100.490377 505.827234,100.340665 504.335604,100.340665 C501.910773,100.340665 499.891396,100.969657 498.247901,102.22296 C496.67278,103.424123 495.889574,105.161607 495.889574,107.520913 C495.889574,109.679796 496.557195,111.483401 497.900423,112.974297 C499.331884,114.563127 501.129473,116.02377 503.295751,117.354523 C505.509357,118.71435 507.924801,120.059838 510.542064,121.390782 C513.228215,122.756758 515.710699,124.330325 517.988819,126.111453 C520.299635,127.918145 522.227881,130.034145 523.770325,132.456805 C525.353795,134.943904 526.14015,137.990483 526.14015,141.578572 C526.14015,148.068124 523.937028,153.137172 519.536909,156.708422 C515.175187,160.248508 508.829058,162 500.519378,162 C498.498292,162 496.461968,161.873057 494.410524,161.619252 C492.361908,161.365797 490.421501,161.016919 488.589239,160.572339 C486.761868,160.128944 485.135469,159.652761 483.709185,159.142988 C482.22762,158.613457 481.105269,158.04093 480.334023,157.406615 L480,157.131895 L480.018747,156.698471 C480.082181,155.231858 480.240366,153.65764 480.49298,151.975331 C480.74198,150.317085 481.006538,148.658875 481.286659,147.000651 C481.567646,145.337305 481.864363,143.751777 482.176859,142.243963 C482.490745,140.729439 482.805286,139.401462 483.120972,138.259056 L483.296298,137.624585 L488.421953,137.624585 L492.350782,151.784468 C492.948224,152.339013 493.777411,152.873608 494.839041,153.380517 Z M551.523986,154.279426 C552.567353,154.639958 553.547512,155.083334 554.463772,155.609646 L554.89802,155.859084 L554.89802,160.87722 L527.48462,160.87722 L527.48462,155.842037 L527.940888,155.597422 C528.911921,155.076832 529.915655,154.637439 530.951733,154.279426 C531.78175,153.992617 532.673726,153.717012 533.627814,153.452465 L533.627814,120.639165 L527.48462,119.890645 L527.48462,114.887395 L528.026381,114.669559 C528.992508,114.281089 530.187719,113.896623 531.614847,113.514067 C533.03446,113.133526 534.531305,112.800915 536.105472,112.516085 C537.666095,112.233705 539.195796,111.982653 540.694636,111.76293 C542.193027,111.543273 543.505637,111.370486 544.72831,111.239255 L548.754826,111.239255 L548.754826,153.444261 C549.761756,153.71112 550.684702,153.989415 551.523986,154.279426 Z M532.045476,97.8837176 C532.045476,95.4513343 532.896912,93.4899324 534.589468,92.0720998 C536.242639,90.6872598 538.362071,90 540.912084,90 C543.462097,90 545.581529,90.6872598 547.234699,92.0720998 C548.927256,93.4899324 549.778692,95.4513343 549.778692,97.8837176 C549.778692,100.255641 548.92546,102.185442 547.234699,103.60177 C545.581529,104.98661 543.462097,105.67387 540.912084,105.67387 C538.362071,105.67387 536.242639,104.98661 534.589468,103.60177 C532.898708,102.185442 532.045476,100.255641 532.045476,97.8837176 Z M554.939388,136.619627 C554.939388,132.71308 555.530887,129.193752 556.717937,126.065499 C557.909172,122.926214 559.620987,120.247674 561.851406,118.038096 C564.081489,115.82885 566.77748,114.141138 569.931248,112.976558 C573.071522,111.816961 576.615526,111.239255 580.560161,111.239255 C585.004078,111.239255 588.846663,111.864333 592.086593,113.121931 C595.336635,114.383455 598.020682,116.138826 600.129,118.388579 C602.237516,120.638544 603.777309,123.343188 604.746274,126.492542 C605.703365,129.603304 606.180933,132.979754 606.180933,136.619627 C606.180933,140.523577 605.605844,144.040314 604.451665,147.166434 C603.29155,150.308632 601.594235,152.989776 599.361994,155.201159 C597.131,157.411308 594.418523,159.099233 591.232963,160.26367 C588.062725,161.422508 584.504072,162 580.560161,162 C576.239048,162 572.472851,161.374368 569.263729,160.116272 C566.047323,158.85532 563.365934,157.101687 561.228542,154.855466 C559.090563,152.608628 557.504374,149.907781 556.472034,146.762151 C555.449604,143.646717 554.939388,140.264903 554.939388,136.619627 Z M571.090265,136.619627 C571.090265,139.386157 571.258141,141.917443 571.593076,144.213021 C571.920602,146.457822 572.496393,148.342632 573.314218,149.869385 C574.110848,151.356571 575.182567,152.504765 576.538054,153.327984 C577.880734,154.143424 579.652057,154.55985 581.863262,154.55985 C583.07795,154.55985 584.168943,154.271968 585.152154,153.695431 C586.124996,153.124976 586.981929,152.180203 587.717711,150.843187 C588.47213,149.472304 589.048749,147.629371 589.437071,145.317295 C589.831584,142.968355 590.030056,140.067803 590.030056,136.619627 C590.030056,133.790969 589.862192,131.244506 589.52749,128.981114 C589.199478,126.762956 588.637311,124.889192 587.846588,123.358361 C587.078038,121.870456 586.049648,120.723404 584.754476,119.902616 C583.475063,119.091816 581.833994,118.679405 579.815531,118.679405 C578.341771,118.679405 577.088713,118.973313 576.04385,119.553754 C575.01549,120.125027 574.134707,121.065748 573.402611,122.396068 C572.648191,123.766951 572.071572,125.609884 571.68325,127.92196 C571.288737,130.2709 571.090265,133.171452 571.090265,136.619627 Z M658.022439,154.353824 C658.888566,154.74078 659.707844,155.160633 660.480175,155.613514 L660.907759,155.864241 L660.907759,160.87722 L635.914406,160.87722 L635.914406,155.871328 L636.332832,155.61896 C636.969132,155.235185 637.682377,154.836868 638.472904,154.423646 C639.122248,154.084223 639.820758,153.776947 640.56834,153.501518 L640.56834,135.496847 C640.56834,132.648453 640.49147,130.237566 640.338262,128.266255 C640.189241,126.34882 639.879562,124.792339 639.417286,123.601567 C638.980503,122.476463 638.401649,121.682993 637.688501,121.196543 C636.973666,120.708942 636.024431,120.45714 634.821593,120.45714 C633.074741,120.45714 631.576035,121.122187 630.277699,122.482844 C628.945651,123.87883 627.953565,125.725826 627.30635,128.036362 L627.30635,153.481936 C628.835703,154.000108 630.264517,154.723338 631.590611,155.650657 L631.960285,155.909165 L631.960285,160.87722 L606.036144,160.87722 L606.036144,155.826413 L606.512558,155.586962 C607.414465,155.133652 608.409091,154.714372 609.496586,154.328545 C610.370267,154.018576 611.264516,153.729736 612.179338,153.462005 L612.179338,120.639165 L606.036144,119.890645 L606.036144,114.907336 L606.552543,114.680231 C607.592149,114.223027 608.86089,113.803285 610.361388,113.418178 C611.839876,113.038719 613.364815,112.706853 614.936232,112.42252 C616.501763,112.139252 618.021019,111.903088 619.49409,111.714054 C620.953022,111.526834 622.179264,111.370803 623.279834,111.239255 L627.30635,111.239255 L627.30635,119.00287 C628.325253,117.335563 629.641538,115.840818 631.252134,114.521623 C633.922851,112.334115 637.14085,111.239255 640.871708,111.239255 C642.422229,111.239255 643.941826,111.401759 645.429487,111.726853 C646.967168,112.062878 648.390206,112.685554 649.692819,113.592075 C651.011077,114.509483 652.13493,115.774101 653.064826,117.376538 C653.616436,118.327094 654.070844,119.431598 654.430166,120.690006 C655.597597,118.291695 657.19662,116.263572 659.224415,114.613447 C661.988662,112.364032 665.345455,111.239255 669.26071,111.239255 C671.644961,111.239255 673.768432,111.548848 675.629902,112.17258 C677.555115,112.817671 679.181422,113.958628 680.494028,115.582583 C681.791965,117.188391 682.759426,119.331221 683.408258,122.005332 C684.046988,124.637809 684.36359,127.947668 684.36359,131.941377 L684.36359,153.403494 C686.319547,153.827942 688.221566,154.563013 690.067471,155.606759 L690.506784,155.855164 L690.506784,160.87722 L664.582644,160.87722 L664.582644,155.892546 L664.973688,155.636185 C666.294097,154.770549 667.715465,154.058785 669.236578,153.501081 L669.236578,133.812677 C669.236578,129.046076 668.798703,125.555129 667.946355,123.368808 C667.184705,121.415132 665.574886,120.45714 662.931359,120.45714 C660.962336,120.45714 659.464986,121.176426 658.358821,122.640938 C657.18217,124.198771 656.29072,126.300069 655.695352,128.949589 L655.695352,153.475388 C656.541316,153.745972 657.316933,154.038627 658.022439,154.353824 Z M717.625966,154.279426 C718.669334,154.639958 719.649493,155.083334 720.565752,155.609646 L721,155.859084 L721,160.87722 L693.586601,160.87722 L693.586601,155.842037 L694.042869,155.597422 C695.013902,155.076832 696.017635,154.637439 697.053713,154.279426 C697.883731,153.992617 698.775706,153.717012 699.729794,153.452465 L699.729794,120.639165 L693.586601,119.890645 L693.586601,114.887395 L694.128361,114.669559 C695.094488,114.281089 696.289699,113.896623 697.716828,113.514067 C699.13644,113.133526 700.633285,112.800915 702.207452,112.516085 C703.768075,112.233705 705.297777,111.982653 706.796616,111.76293 C708.295008,111.543273 709.607617,111.370486 710.830291,111.239255 L714.856806,111.239255 L714.856806,153.444261 C715.863737,153.71112 716.786682,153.989415 717.625966,154.279426 Z M698.147457,97.8837176 C698.147457,95.4513343 698.998893,93.4899324 700.691449,92.0720998 C702.344619,90.6872598 704.464052,90 707.014064,90 C709.564077,90 711.683509,90.6872598 713.33668,92.0720998 C715.029236,93.4899324 715.880672,95.4513343 715.880672,97.8837176 C715.880672,100.255641 715.027441,102.185442 713.33668,103.60177 C711.683509,104.98661 709.564077,105.67387 707.014064,105.67387 C704.464052,105.67387 702.344619,104.98661 700.691449,103.60177 C699.000688,102.185442 698.147457,100.255641 698.147457,97.8837176 Z"></path>
        </g>
    </g>
</svg>