<?xml version="1.0" encoding="UTF-8"?>
<svg width="244px" height="75px" viewBox="0 0 244 75" version="1.1" xmlns="http://www.w3.org/2000/svg" xmlns:xlink="http://www.w3.org/1999/xlink">
    <g stroke="none" stroke-width="1" fill="none" fill-rule="evenodd">
        <path d="M239.683725,65.6986214 L237.856806,64.3609149 L237.856806,24.239255 L234.856806,21.239255 L230.830291,21.239255 C229.607617,21.370486 228.295008,21.543273 226.796616,21.76293 C225.297777,21.982653 223.768075,22.233705 222.207452,22.516085 C220.633285,22.800915 219.13644,23.133526 217.716828,23.514067 C216.289699,23.896623 215.094488,24.281089 214.128361,24.669559 L213.586601,24.887395 L213.586601,29.890645 L216.586601,32.890645 L219.729794,33.2736287 L219.729794,63.452465 C218.775706,63.717012 217.883731,63.992617 217.053713,64.279426 C216.017635,64.637439 215.013902,65.076832 214.042869,65.597422 L213.586601,65.842037 L213.586601,70.87722 L216.586601,73.87722 L244,73.87722 L244,68.859084 L240.5,66.2963142 L240.5,70.37722 L214.086601,70.37722 L214.086601,66.1413003 L214.279119,66.0380873 C215.226788,65.5300235 216.206131,65.1013139 217.217012,64.7520077 C218.036578,64.4688102 218.918628,64.1962476 219.863392,63.9342861 L220.229794,63.8326911 L220.229794,30.1963898 L214.086601,29.4478698 L214.086601,25.2252556 L214.314892,25.1334623 C215.258652,24.7539857 216.434455,24.3754722 217.846287,23.9970165 C219.251902,23.6202278 220.735237,23.2905866 222.296477,23.0080958 C223.851754,22.726683 225.375955,22.4765365 226.869139,22.2576425 C228.416509,22.0308056 229.707088,21.8626814 230.88365,21.7363997 L234.356806,21.7388957 L234.356806,63.8290112 L234.728717,63.9275758 C235.724844,64.1915715 236.636006,64.4663586 237.462667,64.7520077 C238.240061,65.0206334 238.980428,65.336196 239.683725,65.6986214 Z M73.5817423,65.6986203 C72.8784455,65.3361953 72.1380796,65.0206331 71.360687,64.7520077 C70.5340289,64.4663595 69.622866,64.1915723 68.6267368,63.9275758 L68.254826,63.8290111 L68.254826,21.7388957 L64.7816691,21.7363996 C63.6051057,21.8626817 62.3145233,22.0308062 60.7671586,22.2576425 C59.2739775,22.4765359 57.7497779,22.7266823 56.1944965,23.0080958 C54.633258,23.2905865 53.1499221,23.6202277 51.7443065,23.9970165 C50.3324741,24.3754724 49.1566717,24.7539859 48.2129114,25.1334625 L47.98462,25.2252559 L47.98462,29.4478698 L54.127814,30.1963898 L54.127814,63.8326911 L53.7614121,63.9342861 C52.8166449,64.1962486 51.9345941,64.4688113 51.1150319,64.7520077 C50.1041499,65.1013143 49.1248054,65.5300241 48.1771381,66.0380873 L47.98462,66.1413003 L47.98462,70.37722 L74.39802,70.37722 L74.39802,66.2963149 L77.89802,68.859084 L77.89802,73.87722 L50.48462,73.87722 L47.48462,70.87722 L47.48462,65.842037 L47.940888,65.597422 C48.911921,65.076832 49.915655,64.637439 50.951733,64.279426 C51.78175,63.992617 52.673726,63.717012 53.627814,63.452465 L53.627814,33.2736288 L50.48462,32.890645 L47.48462,29.890645 L47.48462,24.887395 L48.026381,24.669559 C48.992508,24.281089 50.187719,23.896623 51.614847,23.514067 C53.03446,23.133526 54.531305,22.800915 56.105472,22.516085 C57.666095,22.233705 59.195796,21.982653 60.694636,21.76293 C62.193027,21.543273 63.505637,21.370486 64.72831,21.239255 L68.754826,21.239255 L71.754826,24.239255 L71.754826,64.3609161 L73.5817423,65.6986203 Z M19.402433,64.18559 C22.631238,64.18559 25.28292,63.355341 27.388728,61.702489 C29.438315,60.093765 30.454666,57.868502 30.454666,54.946912 C30.454666,53.3059078 30.0554499,51.8934484 29.2535125,50.6872536 C28.3273592,49.9569464 27.2952101,49.2578112 26.156718,48.590221 C23.939205,47.289913 21.566471,46.00442 19.038489,44.733825 C16.443627,43.429616 14.006493,41.886518 11.727737,40.104892 C10.7501979,39.3406115 9.84389469,38.5153958 9.00909596,37.629511 C8.66509101,37.3052512 8.33175251,36.9719127 8.00909596,36.629511 C7.66509101,36.3052512 7.33175251,35.9719127 7.00909596,35.629511 C5.44651791,34.1566215 4.10401638,32.4964161 2.983045,30.650336 C1.436645,28.103635 0.669484,24.969737 0.669484,21.263513 C0.669484,18.078664 1.255775,15.295604 2.435887,12.923047 C3.612635,10.557256 5.235613,8.5962116 7.298788,7.0489756 C9.344093,5.5151412 11.755039,4.3765639 14.525832,3.6316663 C17.268983,2.8942 20.229073,2.526255 23.404817,2.526255 C27.234703,2.526255 30.80201,2.794806 34.106991,3.3326938 C37.431712,3.8737942 40.431207,4.7193171 43.104681,5.8710781 L43.655898,6.1085482 L46.655898,9.1085482 L46.62595,9.7106357 C46.56319,10.9723913 46.453617,12.420025 46.297293,14.054282 C46.140524,15.693206 45.936706,17.316508 45.685827,18.924215 C45.435806,20.526425 45.169999,22.035297 44.888333,23.450984 C44.605796,24.871051 44.338216,26.057721 44.084801,27.012992 L43.914194,27.65611 L38.816087,27.65611 L35.816087,24.65611 L32.2281848,13.9145714 C32.0491399,13.8724283 31.8632542,13.830734 31.670565,13.789522 C30.271888,13.490377 28.827234,13.340665 27.335604,13.340665 C24.910773,13.340665 22.891396,13.969657 21.247901,15.22296 C19.67278,16.424123 18.889574,18.161607 18.889574,20.520913 C18.889574,22.3499658 19.3687822,23.9240054 20.3320551,25.268919 C21.2286422,25.9962236 22.2164352,26.6914951 23.295751,27.354523 C25.509357,28.71435 27.924801,30.059838 30.542064,31.390782 C33.228215,32.756758 35.710699,34.330325 37.988819,36.111453 C39.02012,36.917767 39.9752217,37.7856882 40.8538368,38.7149812 C41.1974977,39.0400124 41.5308358,39.3733497 41.8538368,39.7149812 C42.1974977,40.0400124 42.5308358,40.3733497 42.8538368,40.7149812 C44.357302,42.1369445 45.6631964,43.7178789 46.770325,45.456805 C48.353795,47.943904 49.14015,50.990483 49.14015,54.578572 C49.14015,61.068124 46.937028,66.137172 42.536909,69.708422 C38.175187,73.248508 31.829058,75 23.519378,75 C21.498292,75 19.461968,74.873057 17.410524,74.619252 C15.361908,74.365797 13.421501,74.016919 11.589239,73.572339 C9.761868,73.128944 8.135469,72.652761 6.709185,72.142988 C5.22762,71.613457 4.105269,71.04093 3.334023,70.406615 L3,70.131895 L0,67.131895 L0.018747,66.698471 C0.082181,65.231858 0.240366,63.65764 0.49298,61.975331 C0.74198,60.317085 1.006538,58.658875 1.286659,57.000651 C1.567646,55.337305 1.864363,53.751777 2.176859,52.243963 C2.490745,50.729439 2.805286,49.401462 3.120972,48.259056 L3.296298,47.624585 L8.421953,47.624585 L11.421953,50.624585 L14.9791568,63.4450945 C16.0774532,63.9335886 17.5525915,64.18559 19.402433,64.18559 Z M67.234699,2.0720998 C67.5880768,2.36811971 67.9047897,2.68783409 68.1847439,3.0305823 C68.2014426,3.0443511 68.2180943,3.05819026 68.234699,3.0720998 C68.5880768,3.36811971 68.9047897,3.68783409 69.1847439,4.0305823 C69.2014426,4.0443511 69.2180943,4.05819026 69.234699,4.0720998 C69.5880768,4.36811971 69.9047897,4.68783409 70.1847439,5.0305823 C70.2014426,5.0443511 70.2180943,5.05819026 70.234699,5.0720998 C71.927256,6.4899324 72.778692,8.4513343 72.778692,10.8837176 C72.778692,13.255641 71.92546,15.185442 70.234699,16.60177 C68.581529,17.98661 66.462097,18.67387 63.912084,18.67387 C61.362071,18.67387 59.242639,17.98661 57.589468,16.60177 C57.231856,16.302203 56.9117119,15.9796651 56.589468,15.60177 C56.231856,15.302203 55.9117119,14.9796651 55.589468,14.60177 C55.231856,14.302203 54.9117119,13.9796651 54.589468,13.60177 C52.898708,12.185442 52.045476,10.255641 52.045476,7.8837176 C52.045476,5.4513343 52.896912,3.4899324 54.589468,2.0720998 C56.242639,0.6872598 58.362071,0 60.912084,0 C63.462097,0 65.581529,0.6872598 67.234699,2.0720998 Z M121.129,29.388579 C121.51688,29.7578779 121.828777,30.068216 122.129,30.388579 C122.51688,30.7578779 122.828777,31.068216 123.129,31.388579 C125.237516,33.638544 126.777309,36.343188 127.746274,39.492542 C128.703365,42.603304 129.180933,45.979754 129.180933,49.619627 C129.180933,53.523577 128.605844,57.040314 127.451665,60.166434 C126.29155,63.308632 124.594235,65.989776 122.361994,68.201159 C120.131,70.411308 117.418523,72.099233 114.232963,73.26367 C111.062725,74.422508 107.504072,75 103.560161,75 C99.239048,75 95.472851,74.374368 92.263729,73.116272 C89.047323,71.85532 86.365934,70.101687 84.228542,67.855466 C84.1783303,67.8026976 84.1284229,67.7496789 84.0788199,67.6964098 C83.7864366,67.4242177 83.5030043,67.143903 83.228542,66.855466 C83.1783303,66.8026976 83.1284229,66.7496789 83.0788199,66.6964098 C82.7864366,66.4242177 82.5030043,66.143903 82.228542,65.855466 C82.1783303,65.8026976 82.1284229,65.7496789 82.0788199,65.6964098 C81.7864366,65.4242177 81.5030043,65.143903 81.228542,64.855466 C79.090563,62.608628 77.504374,59.907781 76.472034,56.762151 C75.449604,53.646717 74.939388,50.264903 74.939388,46.619627 C74.939388,42.71308 75.530887,39.193752 76.717937,36.065499 C77.909172,32.926214 79.620987,30.247674 81.851406,28.038096 C84.081489,25.82885 86.77748,24.141138 89.931248,22.976558 C93.071522,21.816961 96.615526,21.239255 100.560161,21.239255 C105.004078,21.239255 108.846663,21.864333 112.086593,23.121931 C115.336635,24.383455 118.020682,26.138826 120.129,28.388579 C120.51688,28.7578779 120.828777,29.068216 121.129,29.388579 Z M183.907759,68.864241 L183.907759,73.87722 L158.914406,73.87722 L155.914406,70.87722 L155.914406,65.871328 L156.332832,65.61896 C156.969132,65.235185 157.682377,64.836868 158.472904,64.423646 C159.122248,64.084223 159.820758,63.776947 160.56834,63.501518 L160.56834,45.496847 C160.56834,42.648453 160.49147,40.237566 160.338262,38.266255 C160.190952,36.3708315 159.886651,34.8281223 159.433146,33.6427205 C158.957345,33.5196601 158.420953,33.45714 157.821593,33.45714 C156.074741,33.45714 154.576035,34.122187 153.277699,35.482844 C151.945651,36.87883 150.953565,38.725826 150.30635,41.036362 L150.30635,64.8347824 C150.598512,65.0025617 152.149824,66.3606892 154.960285,68.909165 L154.960285,73.87722 L129.036144,73.87722 L126.036144,70.87722 L126.036144,65.826413 L126.512558,65.586962 C127.414465,65.133652 128.409091,64.714372 129.496586,64.328545 C130.370267,64.018576 131.264516,63.729736 132.179338,63.462005 L132.179338,33.2736288 L129.036144,32.890645 L126.036144,29.890645 L126.036144,24.907336 L126.552543,24.680231 C127.592149,24.223027 128.86089,23.803285 130.361388,23.418178 C131.839876,23.038719 133.364815,22.706853 134.936232,22.42252 C136.501763,22.139252 138.021019,21.903088 139.49409,21.714054 C140.953022,21.526834 142.179264,21.370803 143.279834,21.239255 L147.30635,21.239255 L150.30635,24.239255 L150.30635,25.3479416 C150.60943,25.0652631 150.9247,24.7898153 151.252134,24.521623 C153.922851,22.334115 157.14085,21.239255 160.871708,21.239255 C162.422229,21.239255 163.941826,21.401759 165.429487,21.726853 C166.967168,22.062878 168.390206,22.685554 169.692819,23.592075 C170.36953,24.0630147 170.995012,24.6254496 171.569327,25.2781092 C171.918322,25.583694 172.251652,25.917099 172.569327,26.2781092 C172.918322,26.583694 173.251652,26.917099 173.569327,27.2781092 C174.184444,27.8167137 174.750896,28.4417426 175.268738,29.1520188 C176.326435,27.4124312 177.645438,25.8983448 179.224415,24.613447 C181.988662,22.364032 185.345455,21.239255 189.26071,21.239255 C191.644961,21.239255 193.768432,21.548848 195.629902,22.17258 C197.402494,22.7665316 198.921694,23.7808463 200.175952,25.20548 C200.526034,25.5125747 200.859429,25.8459618 201.175952,26.20548 C201.526034,26.5125747 201.859429,26.8459618 202.175952,27.20548 C202.645476,27.61735 203.084984,28.0765142 203.494028,28.582583 C204.791965,30.188391 205.759426,32.331221 206.408258,35.005332 C207.046988,37.637809 207.36359,40.947668 207.36359,44.941377 L207.36359,64.3144935 C207.973009,64.5539035 210.020741,66.0674604 213.506784,68.855164 L213.506784,73.87722 L187.582644,73.87722 L184.582644,70.87722 L184.582644,65.892546 L184.973688,65.636185 C186.294097,64.770549 187.715465,64.058785 189.236578,63.501081 L189.236578,43.812677 C189.236578,39.2998137 188.84408,35.9304069 188.078946,33.7290438 C187.456911,33.5474112 186.742838,33.45714 185.931359,33.45714 C183.962336,33.45714 182.464986,34.176426 181.358821,35.640938 C180.18217,37.198771 179.29072,39.300069 178.695352,41.949589 L178.695352,64.6656073 L183.907759,68.864241 Z M236.33668,5.0720998 C238.029236,6.4899324 238.880672,8.4513343 238.880672,10.8837176 C238.880672,13.255641 238.027441,15.185442 236.33668,16.60177 C234.683509,17.98661 232.564077,18.67387 230.014064,18.67387 C227.464052,18.67387 225.344619,17.98661 223.691449,16.60177 C223.333836,16.3022027 223.013692,15.9796645 222.731164,15.6348305 C222.333836,15.3022027 222.013692,14.9796645 221.731164,14.6348305 C221.333836,14.3022027 221.013692,13.9796645 220.731164,13.6348305 C219.000688,12.185442 218.147457,10.255641 218.147457,7.8837176 C218.147457,5.4513343 218.998893,3.4899324 220.691449,2.0720998 C222.344619,0.6872598 224.464052,0 227.014064,0 C229.564077,0 231.683509,0.6872598 233.33668,2.0720998 C233.690057,2.36811937 234.00677,2.68783334 234.286723,3.0305811 C234.303423,3.04435029 234.320075,3.05818986 234.33668,3.0720998 C234.690057,3.36811937 235.00677,3.68783334 235.286723,4.0305811 C235.303423,4.0443503 235.320075,4.05818986 235.33668,4.0720998 C235.690057,4.36811937 236.00677,4.68783334 236.286723,5.0305811 C236.303423,5.04435029 236.320075,5.05818986 236.33668,5.0720998 Z M75.439388,46.619627 C75.439388,50.2153333 75.9422319,53.5443058 76.9471047,56.6062412 C77.9572244,59.684164 79.5059634,62.3198472 81.5907612,64.5107962 C83.6744372,66.7005662 86.2932321,68.414675 89.4462246,69.6507665 C92.5894294,70.8830205 96.292897,71.5 100.560161,71.5 C104.451045,71.5 107.951152,70.9309349 111.061304,69.7940605 C114.182512,68.6531465 116.832689,67.0030207 119.010104,64.84595 C121.188466,62.6879425 122.846807,60.0696126 123.982613,56.9932576 C125.114388,53.9278184 125.680933,50.4701823 125.680933,46.619627 C125.680933,43.0262279 125.209842,39.699535 124.268382,36.6395756 C123.320879,33.5599783 121.818566,30.9226982 119.764165,28.7304783 C117.710948,26.5395236 115.091255,24.8245546 111.905667,23.5880487 C108.73179,22.3560898 104.951458,21.739255 100.560161,21.739255 C96.668745,21.739255 93.1838671,22.3084761 90.1044497,23.4456008 C87.0148122,24.5864996 84.3804727,26.2364709 82.203296,28.393305 C80.0257348,30.5505191 78.3523137,33.1677299 77.1854124,36.2428877 C76.0218582,39.3092219 75.439388,42.7679571 75.439388,46.619627 Z M90.590265,46.619627 C90.590265,43.1496213 90.7901113,40.2210209 91.1901563,37.839143 C91.5856953,35.4840969 92.177164,33.58581 92.9645615,32.1550025 C93.7359703,30.7532455 94.6796672,29.7396123 95.8010408,29.1166685 C96.9282681,28.4904726 98.2661874,28.179405 99.815531,28.179405 C101.914058,28.179405 103.650481,28.6110349 105.022121,29.480282 C106.39569,30.3507521 107.483455,31.5658381 108.290825,33.1288982 C109.110455,34.7156917 109.687218,36.6432821 110.022111,38.9079713 C110.360818,41.1984437 110.530056,43.7694614 110.530056,46.619627 C110.530056,50.0896336 110.33021,53.018234 109.930165,55.400112 C109.534626,57.7551572 108.943157,59.6534443 108.15576,61.0842528 C107.3834,62.4877371 106.467702,63.5036412 105.40507,64.1267471 C104.342629,64.7497433 103.163916,65.05985 101.863262,65.05985 C99.5775605,65.05985 97.7136156,64.6269166 96.2785086,63.7553435 C94.8441364,62.8842157 93.7109449,61.6689179 92.8734686,60.1054781 C92.0242809,58.5201758 91.4329532,56.5787587 91.0983145,54.2852089 C90.7595478,51.9633687 90.590265,49.4078789 90.590265,46.619627 Z M91.340265,46.619627 C91.340265,49.3730705 91.5071676,51.8926295 91.8404567,54.1769271 C92.1632506,56.389295 92.7294847,58.2483262 93.5345927,59.7513385 C94.3096881,61.1983226 95.349884,62.3138868 96.6678266,63.1143042 C97.9743029,63.9077569 99.7054686,64.30985 101.863262,64.30985 C103.032534,64.30985 104.08012,64.0342412 105.025696,63.4797728 C105.962154,62.9306531 106.787483,62.0150064 107.498686,60.7226542 C108.240762,59.374201 108.807914,57.5539568 109.190524,55.2758866 C109.582953,52.939356 109.780056,50.0509559 109.780056,46.619627 C109.780056,43.8044811 109.613206,41.26975 109.280179,39.0176853 C108.956714,36.8302714 108.403429,34.9811501 107.624469,33.4730923 C106.876894,32.0257943 105.879278,30.9114102 104.620653,30.1137831 C103.378623,29.3266737 101.780434,28.929405 99.815531,28.929405 C98.3878554,28.929405 97.1749043,29.2114174 96.1652545,29.7722968 C95.1756846,30.3220212 94.3286895,31.2317861 93.6216357,32.516601 C92.8795595,33.8650535 92.3124076,35.6852973 91.9297968,37.9633684 C91.5373681,40.2998989 91.340265,43.188299 91.340265,46.619627 Z M107.064699,32.5209044 L107.064699,32.5209044 C105.898625,31.9611899 104.4841,31.679405 102.815531,31.679405 C101.345307,31.679405 100.091305,31.9718733 99.0438499,32.553754 C98.0121784,33.1268667 97.1324536,34.0698428 96.4026108,35.3960684 C95.6463506,36.7702952 95.0706522,38.6153605 94.68325,40.9219599 C94.2884311,43.2727215 94.090265,46.174102 94.090265,49.619627 C94.090265,52.3851605 94.2580198,54.9166126 94.593076,57.2130211 C94.920087,59.4542926 95.4950815,61.3401837 96.3142181,62.8693851 C96.3192968,62.8788664 96.3243868,62.888334 96.329488,62.8977878 C95.1705472,62.116877 94.2421217,61.0721865 93.5345927,59.7513385 C92.7294847,58.2483262 92.1632506,56.389295 91.8404567,54.1769271 C91.5071676,51.8926295 91.340265,49.3730705 91.340265,46.619627 C91.340265,43.188299 91.5373681,40.2998989 91.9297968,37.9633684 C92.3124076,35.6852973 92.8795595,33.8650535 93.6216357,32.516601 C94.3286895,31.2317861 95.1756846,30.3220212 96.1652545,29.7722968 C97.1749043,29.2114174 98.3878554,28.929405 99.815531,28.929405 C101.780434,28.929405 103.378623,29.3266737 104.620653,30.1137831 C105.587789,30.7266848 106.400812,31.5266151 107.064699,32.5209044 Z M42.906853,6.3302775 C40.2742172,5.19611004 37.3144975,4.36129613 34.0266725,3.82620057 C30.7503033,3.29296937 27.2099203,3.026255 23.404817,3.026255 C20.2699784,3.026255 17.3536753,3.38918483 14.6556424,4.11452162 C11.9419223,4.8440758 9.58955109,5.95604378 7.59876998,7.44898912 C5.59888142,8.94876474 4.02608524,10.8487447 2.88356505,13.1457225 C1.74175592,15.4412734 1.169484,18.1469723 1.169484,21.263513 C1.169484,24.8909816 1.91795855,27.9329442 3.41042469,30.3908238 C4.89156569,32.8300519 6.76709921,34.9373041 9.03570368,36.7109929 C11.2883935,38.4722392 13.6975729,39.99765 16.263029,41.2870792 C18.8001036,42.5622443 21.1823256,43.8528532 23.4096337,45.1589048 C25.6118284,46.4502301 27.4314217,47.8631938 28.8664001,49.3977424 C30.2619656,50.8901437 30.954666,52.734404 30.954666,54.946912 C30.954666,58.0121654 29.8755263,60.386221 27.6974411,62.0958034 C25.4943687,63.8249984 22.731318,64.68559 19.402433,64.68559 C17.4162386,64.68559 15.8183312,64.402184 14.6235992,63.8317208 C13.5256996,63.3074937 12.6523651,62.7465908 12.0106298,62.1509328 L8.04179451,48.124585 L3.67686992,48.124585 L3.60290992,48.392232 C3.29056412,49.5225504 2.97848465,50.8398641 2.66645475,52.3454322 C2.35527854,53.8468781 2.05969011,55.4263362 1.77967395,57.0839352 C1.500054,58.7391931 1.23597738,60.3943906 0.98743663,62.0495782 C0.73721214,63.715974 0.58088611,65.2726042 0.518279944,66.7200774 L0.651629291,67.0204463 C1.36597074,67.6079599 2.43391382,68.1562126 3.87746616,68.6721574 C5.2851723,69.1752904 6.89462437,69.646648 8.70713802,70.086438 C10.5197985,70.5262618 12.4413058,70.871808 14.471916,71.1230353 C16.5032581,71.3743533 18.5190806,71.5 20.519378,71.5 C28.7429504,71.5 34.9704351,69.7707302 39.2218172,66.320199 C43.4945496,62.8523391 45.64015,57.9310382 45.64015,51.578572 C45.64015,48.0736147 44.8746573,45.1223318 43.3485535,42.7253358 C41.8370502,40.3512732 39.9474839,38.2774989 37.6808524,36.5053522 C35.4287303,34.7445504 32.9735671,33.1881993 30.3154228,31.8364655 C27.687051,30.4998724 25.2598568,29.1478879 23.0340363,27.7805575 C20.8309621,26.4272005 18.9954993,24.9367484 17.5289521,23.308975 C16.0997351,21.7226368 15.389574,19.7985415 15.389574,17.520913 C15.389574,15.0205802 16.2337027,13.1301611 17.9447086,11.8253744 C19.682931,10.4998337 21.8108971,9.840665 24.335604,9.840665 C25.8615686,9.840665 27.3412959,9.99391377 28.775139,10.30058 C29.9868375,10.5597357 30.9509303,10.841211 31.6523559,11.1416509 L31.8586386,11.2300074 L36.1762315,24.15611 L40.5295401,24.15611 L40.6015172,23.8847861 C40.8516606,22.9418478 41.1169857,21.765553 41.3979449,20.3534161 C41.678166,18.9449913 41.9427797,17.442958 42.1918058,15.8471241 C42.4411473,14.2492698 42.6437329,12.6357999 42.7995649,11.0066721 C42.9552753,9.37882914 43.0642416,7.93882293 43.1265674,6.68579627 L43.1392706,6.43040544 L42.906853,6.3302775 Z M52.545476,7.8837176 C52.545476,10.1154827 53.339106,11.9021078 54.910544,13.2184813 C56.4635207,14.5193898 58.465852,15.17387 60.912084,15.17387 C63.3583161,15.17387 65.3606473,14.5193898 66.9136231,13.2184812 C68.4850618,11.9021079 69.278692,10.1154829 69.278692,7.8837176 C69.278692,5.58885275 68.4848793,3.77160906 66.9136229,2.45538839 C65.3606474,1.15448009 63.3583163,0.5 60.912084,0.5 C58.4658518,0.5 56.4635206,1.15448005 54.910544,2.45538845 C53.3392886,3.77160913 52.545476,5.58885299 52.545476,7.8837176 Z M180.227259,66.04483 C179.471323,65.6015627 178.668428,65.1900609 177.818485,64.8103356 C177.131144,64.5032539 176.372841,64.2170385 175.543028,63.9516204 L175.195352,63.8404153 L175.195352,38.949589 C175.815641,36.1336806 176.732615,33.9643747 177.959841,32.3395831 C179.164177,30.7450964 180.811669,29.95714 182.931359,29.95714 C185.753405,29.95714 187.565635,31.0156922 188.412205,33.187194 C189.295567,35.4530669 189.736578,39.0092363 189.736578,43.812677 L189.736578,63.8503072 L189.408695,63.9705229 C187.922804,64.5153132 186.535736,65.2100033 185.247821,66.0543372 L185.082644,70.37722 L210.006784,70.37722 L210.006784,66.1468399 L209.821369,66.0419992 C208.017792,65.0221868 206.162825,64.3055701 204.257556,63.8921216 L203.86359,63.8066298 L203.86359,41.941377 C203.86359,37.9780384 203.549634,34.708506 202.922356,32.1232286 C202.287763,29.5078011 201.348473,27.4351056 200.105169,25.8968892 C198.851395,24.3457221 197.304358,23.2609709 195.471045,22.6466734 C193.666765,22.0421041 191.597444,21.739255 189.26071,21.739255 C185.453287,21.739255 182.209617,22.8288598 179.540004,25.001266 C177.570125,26.6042616 176.016183,28.5741768 174.879733,30.9088427 L174.308027,32.0833265 L173.949382,30.8272877 C173.600338,29.6048753 173.161286,28.5389479 172.632367,27.6274945 C171.735791,26.0824755 170.660033,24.8743441 169.407211,24.0024751 C168.158259,23.133298 166.795952,22.5372619 165.322743,22.2153257 C163.87053,21.8979782 162.386731,21.739255 160.871708,21.739255 C157.250414,21.739255 154.14576,22.797849 151.568959,24.9084327 C150.000904,26.1927835 148.722009,27.6451909 147.732992,29.2635937 L146.80635,30.7799267 L146.80635,21.7388096 L143.339175,21.7357211 C142.373867,21.8511016 141.358639,21.9788826 139.557731,22.2099872 C138.09349,22.3978881 136.582698,22.6327265 135.025257,22.9145308 C133.46537,23.1967775 131.952203,23.5260949 130.485686,23.9024817 C129.006548,24.2821066 127.764034,24.6936511 126.75383,25.1379246 L126.536144,25.23366 L126.536144,29.4478698 L132.679338,30.1963898 L132.679338,63.8366479 L132.319777,63.9418768 C131.413811,64.2070161 130.528482,64.4929792 129.663768,64.7997668 C128.594299,65.1791987 127.61894,65.5904825 126.737098,66.033708 L126.536144,66.1347095 L126.536144,70.37722 L151.460285,70.37722 L151.460285,66.169645 C150.016847,65.1602693 148.630496,64.4585002 147.145901,63.9554927 L146.80635,63.840447 L146.80635,38.036362 C147.491532,35.5215776 148.52072,33.5998816 149.915958,32.1376719 C151.304972,30.6819844 152.93275,29.95714 154.821593,29.95714 C156.108326,29.95714 157.158822,30.2299958 157.970254,30.7834867 C158.780716,31.3363168 159.416158,32.2170679 159.883394,33.4206166 C160.367204,34.6668583 160.68481,36.2724087 160.836759,38.2275124 C160.991171,40.2143158 161.06834,42.6382612 161.06834,45.496847 L161.06834,63.8501598 L160.741195,63.9706887 C160.012727,64.2390758 159.333914,64.5377699 158.704528,64.8667606 C157.922035,65.2757826 157.217723,65.6691545 156.591067,66.0471129 L156.414406,66.1536633 L156.414406,70.37722 L180.407759,70.37722 L180.407759,66.1506717 L180.227259,66.04483 Z M218.647457,7.8837176 C218.647457,10.1154835 219.441087,11.9021083 221.012525,13.2184814 C222.5655,14.5193896 224.567833,15.17387 227.014064,15.17387 C229.460296,15.17387 231.462627,14.5193898 233.015604,13.2184812 C234.587042,11.9021083 235.380672,10.1154835 235.380672,7.8837176 C235.380672,5.58885299 234.586859,3.77160913 233.015604,2.45538848 C231.462627,1.15448005 229.460296,0.5 227.014064,0.5 C224.567832,0.5 222.5655,1.1544803 221.012525,2.45538845 C219.44127,3.77160913 218.647457,5.58885299 218.647457,7.8837176 Z" fill-rule="nonzero"></path>
    </g>
</svg>